<svg width="236" height="267" viewBox="0 0 236 267" fill="none" xmlns="http://www.w3.org/2000/svg">
<path d="M21.1936 5.13379V3.87787H28.6772V5.13379H25.6602V13.5475H24.206V5.13379H21.1936ZM32.2207 13.6939C31.5408 13.6939 30.9475 13.5381 30.4407 13.2265C29.934 12.9149 29.5405 12.4789 29.2603 11.9186C28.9802 11.3583 28.8401 10.7036 28.8401 9.95447C28.8401 9.20217 28.9802 8.5443 29.2603 7.98087C29.5405 7.41743 29.934 6.97991 30.4407 6.66829C30.9475 6.35667 31.5408 6.20086 32.2207 6.20086C32.9006 6.20086 33.494 6.35667 34.0008 6.66829C34.5075 6.97991 34.901 7.41743 35.1811 7.98087C35.4613 8.5443 35.6014 9.20217 35.6014 9.95447C35.6014 10.7036 35.4613 11.3583 35.1811 11.9186C34.901 12.4789 34.5075 12.9149 34.0008 13.2265C33.494 13.5381 32.9006 13.6939 32.2207 13.6939ZM32.2255 12.5088C32.6661 12.5088 33.0313 12.3923 33.3209 12.1594C33.6104 11.9265 33.8245 11.6164 33.963 11.2293C34.1046 10.8421 34.1755 10.4156 34.1755 9.94975C34.1755 9.48704 34.1046 9.0621 33.963 8.67493C33.8245 8.28462 33.6104 7.97143 33.3209 7.73535C33.0313 7.49927 32.6661 7.38124 32.2255 7.38124C31.7816 7.38124 31.4134 7.49927 31.1206 7.73535C30.831 7.97143 30.6154 8.28462 30.4738 8.67493C30.3353 9.0621 30.266 9.48704 30.266 9.94975C30.266 10.4156 30.3353 10.8421 30.4738 11.2293C30.6154 11.6164 30.831 11.9265 31.1206 12.1594C31.4134 12.3923 31.7816 12.5088 32.2255 12.5088ZM39.892 13.6892C39.3066 13.6892 38.7841 13.5397 38.3245 13.2406C37.8681 12.9385 37.5092 12.5088 37.248 11.9517C36.9899 11.3914 36.8608 10.7194 36.8608 9.93558C36.8608 9.15181 36.9914 8.48135 37.2527 7.92421C37.5171 7.36707 37.8791 6.94056 38.3387 6.64468C38.7982 6.3488 39.3192 6.20086 39.9015 6.20086C40.3516 6.20086 40.7136 6.2764 40.9874 6.42749C41.2644 6.57543 41.4785 6.74855 41.6296 6.94686C41.7838 7.14516 41.9034 7.31986 41.9884 7.47095H42.0734V3.87787H43.4851V13.5475H42.1064V12.4191H41.9884C41.9034 12.5733 41.7806 12.7496 41.6201 12.9479C41.4627 13.1462 41.2455 13.3193 40.9685 13.4673C40.6915 13.6152 40.3327 13.6892 39.892 13.6892ZM40.2037 12.4852C40.6097 12.4852 40.9528 12.3782 41.233 12.1641C41.5162 11.9469 41.7303 11.6463 41.8751 11.2623C42.023 10.8783 42.097 10.4313 42.097 9.92142C42.097 9.41779 42.0246 8.97711 41.8798 8.59939C41.735 8.22167 41.5225 7.92736 41.2424 7.71646C40.9623 7.50557 40.616 7.40012 40.2037 7.40012C39.7787 7.40012 39.4246 7.51029 39.1413 7.73063C38.858 7.95097 38.644 8.25157 38.4992 8.63244C38.3575 9.01331 38.2867 9.44297 38.2867 9.92142C38.2867 10.4062 38.3591 10.8421 38.5039 11.2293C38.6487 11.6164 38.8627 11.9233 39.146 12.15C39.4325 12.3735 39.785 12.4852 40.2037 12.4852ZM47.6105 13.7081C47.151 13.7081 46.7355 13.6231 46.3641 13.4531C45.9926 13.28 45.6983 13.0298 45.4811 12.7024C45.2671 12.375 45.1601 11.9737 45.1601 11.4984C45.1601 11.0892 45.2388 10.7524 45.3962 10.488C45.5535 10.2236 45.766 10.0143 46.0336 9.86004C46.3011 9.7058 46.6001 9.58934 46.9306 9.51064C47.2612 9.43195 47.598 9.37215 47.9411 9.33123C48.3754 9.28086 48.728 9.23994 48.9987 9.20847C49.2694 9.17384 49.4661 9.11876 49.5889 9.04321C49.7116 8.96767 49.773 8.84491 49.773 8.67493V8.64188C49.773 8.22954 49.6565 7.91005 49.4236 7.68341C49.1938 7.45678 48.8507 7.34346 48.3943 7.34346C47.919 7.34346 47.5444 7.44891 47.2706 7.65981C46.9999 7.86755 46.8126 8.09891 46.7087 8.35387L45.382 8.05169C45.5394 7.61102 45.7692 7.25533 46.0713 6.98463C46.3767 6.71078 46.7276 6.51248 47.1242 6.38972C47.5208 6.26381 47.9379 6.20086 48.3754 6.20086C48.665 6.20086 48.9719 6.23548 49.2961 6.30473C49.6235 6.37083 49.9288 6.49359 50.2121 6.67301C50.4985 6.85243 50.733 7.10896 50.9156 7.44262C51.0982 7.77312 51.1895 8.20278 51.1895 8.73159V13.5475H49.8108V12.556H49.7541C49.6628 12.7386 49.5259 12.918 49.3433 13.0943C49.1608 13.2706 48.9263 13.4169 48.6398 13.5334C48.3534 13.6498 48.0103 13.7081 47.6105 13.7081ZM47.9174 12.5749C48.3078 12.5749 48.6414 12.4978 48.9184 12.3436C49.1986 12.1893 49.411 11.9879 49.5558 11.7392C49.7038 11.4874 49.7777 11.2183 49.7777 10.9318V9.99696C49.7274 10.0473 49.6298 10.0945 49.485 10.1386C49.3433 10.1795 49.1812 10.2157 48.9987 10.2472C48.8161 10.2755 48.6383 10.3023 48.4651 10.3275C48.292 10.3495 48.1472 10.3684 48.0308 10.3841C47.7569 10.4187 47.5067 10.477 47.28 10.5588C47.0566 10.6407 46.8771 10.7587 46.7418 10.9129C46.6096 11.064 46.5435 11.2655 46.5435 11.5173C46.5435 11.8667 46.6725 12.1311 46.9306 12.3105C47.1888 12.4868 47.5177 12.5749 47.9174 12.5749ZM53.7025 16.2671C53.4916 16.2671 53.2996 16.2498 53.1265 16.2152C52.9533 16.1837 52.8243 16.1491 52.7393 16.1113L53.0793 14.9546C53.3374 15.0238 53.5671 15.0537 53.7686 15.0443C53.97 15.0348 54.1479 14.9593 54.3021 14.8176C54.4595 14.676 54.598 14.4446 54.7176 14.1236L54.8923 13.642L52.2388 6.29529H53.7497L55.5864 11.9233H55.6619L57.4986 6.29529H59.0142L56.0255 14.5155C55.887 14.8932 55.7107 15.2127 55.4967 15.4739C55.2826 15.7383 55.0277 15.9366 54.7318 16.0688C54.4359 16.201 54.0928 16.2671 53.7025 16.2671ZM63.4961 5.13379V3.87787H70.9797V5.13379H67.9627V13.5475H66.5084V5.13379H63.4961ZM73.6438 13.7081C73.1843 13.7081 72.7688 13.6231 72.3974 13.4531C72.0259 13.28 71.7316 13.0298 71.5144 12.7024C71.3004 12.375 71.1934 11.9737 71.1934 11.4984C71.1934 11.0892 71.2721 10.7524 71.4295 10.488C71.5868 10.2236 71.7993 10.0143 72.0669 9.86004C72.3344 9.7058 72.6334 9.58934 72.9639 9.51064C73.2945 9.43195 73.6313 9.37215 73.9744 9.33123C74.4087 9.28086 74.7613 9.23994 75.032 9.20847C75.3027 9.17384 75.4994 9.11876 75.6222 9.04321C75.7449 8.96767 75.8063 8.84491 75.8063 8.67493V8.64188C75.8063 8.22954 75.6898 7.91005 75.4569 7.68341C75.2271 7.45678 74.884 7.34346 74.4276 7.34346C73.9523 7.34346 73.5777 7.44891 73.3039 7.65981C73.0332 7.86755 72.8459 8.09891 72.742 8.35387L71.4153 8.05169C71.5727 7.61102 71.8025 7.25533 72.1046 6.98463C72.41 6.71078 72.7609 6.51248 73.1575 6.38972C73.5541 6.26381 73.9712 6.20086 74.4087 6.20086C74.6983 6.20086 75.0052 6.23548 75.3294 6.30473C75.6568 6.37083 75.9621 6.49359 76.2454 6.67301C76.5318 6.85243 76.7663 7.10896 76.9489 7.44262C77.1315 7.77312 77.2228 8.20278 77.2228 8.73159V13.5475H75.8441V12.556H75.7874C75.6961 12.7386 75.5592 12.918 75.3766 13.0943C75.1941 13.2706 74.9596 13.4169 74.6731 13.5334C74.3867 13.6498 74.0436 13.7081 73.6438 13.7081ZM73.9507 12.5749C74.3411 12.5749 74.6747 12.4978 74.9517 12.3436C75.2319 12.1893 75.4443 11.9879 75.5891 11.7392C75.7371 11.4874 75.811 11.2183 75.811 10.9318V9.99696C75.7607 10.0473 75.6631 10.0945 75.5183 10.1386C75.3766 10.1795 75.2145 10.2157 75.032 10.2472C74.8494 10.2755 74.6716 10.3023 74.4984 10.3275C74.3253 10.3495 74.1805 10.3684 74.0641 10.3841C73.7902 10.4187 73.54 10.477 73.3133 10.5588C73.0899 10.6407 72.9104 10.7587 72.7751 10.9129C72.6429 11.064 72.5768 11.2655 72.5768 11.5173C72.5768 11.8667 72.7058 12.1311 72.9639 12.3105C73.2221 12.4868 73.551 12.5749 73.9507 12.5749ZM84.5376 8.06586L83.2581 8.29249C83.2045 8.12881 83.1196 7.973 83.0031 7.82506C82.8898 7.67712 82.7355 7.55593 82.5404 7.4615C82.3452 7.36707 82.1013 7.31986 81.8085 7.31986C81.4088 7.31986 81.0751 7.40957 80.8076 7.58898C80.54 7.76525 80.4063 7.99346 80.4063 8.2736C80.4063 8.51598 80.496 8.71113 80.6754 8.85907C80.8548 9.00701 81.1444 9.1282 81.5441 9.22263L82.6962 9.48704C83.3635 9.64127 83.8608 9.87892 84.1882 10.2C84.5156 10.521 84.6792 10.9381 84.6792 11.4512C84.6792 11.8856 84.5533 12.2727 84.3015 12.6127C84.0528 12.9495 83.705 13.2139 83.2581 13.4059C82.8142 13.5979 82.2996 13.6939 81.7141 13.6939C80.902 13.6939 80.2394 13.5208 79.7264 13.1745C79.2133 12.8252 78.8985 12.3294 78.782 11.6873L80.1466 11.4795C80.2316 11.8352 80.4063 12.1043 80.6707 12.2869C80.9351 12.4663 81.2797 12.556 81.7047 12.556C82.1674 12.556 82.5372 12.46 82.8142 12.268C83.0912 12.0729 83.2297 11.8352 83.2297 11.5551C83.2297 11.3284 83.1447 11.138 82.9748 10.9838C82.8079 10.8295 82.5514 10.7131 82.2052 10.6344L80.9776 10.3652C80.3008 10.211 79.8003 9.96548 79.4761 9.62868C79.1551 9.29188 78.9945 8.86537 78.9945 8.34915C78.9945 7.92106 79.1141 7.54649 79.3534 7.22543C79.5926 6.90436 79.9231 6.65412 80.3449 6.4747C80.7667 6.29214 81.2498 6.20086 81.7944 6.20086C82.5782 6.20086 83.1951 6.37083 83.6452 6.71078C84.0953 7.04758 84.3928 7.49927 84.5376 8.06586ZM87.5298 11.0876L87.5204 9.36428H87.7659L90.6555 6.29529H92.3458L89.0502 9.78921H88.8283L87.5298 11.0876ZM86.2314 13.5475V3.87787H87.6432V13.5475H86.2314ZM90.8113 13.5475L88.2145 10.1008L89.1871 9.11404L92.5441 13.5475H90.8113ZM99.0669 8.06586L97.7874 8.29249C97.7339 8.12881 97.6489 7.973 97.5324 7.82506C97.4191 7.67712 97.2648 7.55593 97.0697 7.4615C96.8745 7.36707 96.6306 7.31986 96.3379 7.31986C95.9381 7.31986 95.6044 7.40957 95.3369 7.58898C95.0693 7.76525 94.9356 7.99346 94.9356 8.2736C94.9356 8.51598 95.0253 8.71113 95.2047 8.85907C95.3841 9.00701 95.6737 9.1282 96.0734 9.22263L97.2255 9.48704C97.8928 9.64127 98.3901 9.87892 98.7175 10.2C99.0449 10.521 99.2085 10.9381 99.2085 11.4512C99.2085 11.8856 99.0826 12.2727 98.8308 12.6127C98.5822 12.9495 98.2343 13.2139 97.7874 13.4059C97.3435 13.5979 96.8289 13.6939 96.2434 13.6939C95.4313 13.6939 94.7687 13.5208 94.2557 13.1745C93.7426 12.8252 93.4278 12.3294 93.3114 11.6873L94.6759 11.4795C94.7609 11.8352 94.9356 12.1043 95.2 12.2869C95.4644 12.4663 95.809 12.556 96.234 12.556C96.6967 12.556 97.0665 12.46 97.3435 12.268C97.6205 12.0729 97.759 11.8352 97.759 11.5551C97.759 11.3284 97.674 11.138 97.5041 10.9838C97.3372 10.8295 97.0807 10.7131 96.7345 10.6344L95.5069 10.3652C94.8301 10.211 94.3296 9.96548 94.0054 9.62868C93.6844 9.29188 93.5238 8.86537 93.5238 8.34915C93.5238 7.92106 93.6434 7.54649 93.8827 7.22543C94.1219 6.90436 94.4524 6.65412 94.8742 6.4747C95.296 6.29214 95.7791 6.20086 96.3237 6.20086C97.1075 6.20086 97.7244 6.37083 98.1745 6.71078C98.6246 7.04758 98.9221 7.49927 99.0669 8.06586Z" fill="black"/>
<path d="M27.9662 23.3606V38.8321H25.6243V25.7025H25.5336L21.832 28.1199V25.8838L25.6923 23.3606H27.9662ZM38.0211 23.3606V38.8321H35.6793V25.7025H35.5886L31.8869 28.1199V25.8838L35.7472 23.3606H38.0211Z" fill="black"/>
<circle cx="204.755" cy="8.52503" r="7.97749" fill="#BDBDBD"/>
<rect x="203.426" y="6.75226" width="2.65916" height="7.09109" rx="1.32958" fill="white"/>
<rect x="203.426" y="3.2067" width="2.65916" height="2.65916" rx="1.32958" fill="white"/>
<path d="M-0.000244141 66.5082H236" stroke="#F0F0F0" stroke-width="1.32958"/>
<path d="M32.6122 263.309V257.507H34.5726C35.0278 257.507 35.3998 257.589 35.6888 257.753C35.9796 257.916 36.1949 258.136 36.3347 258.413C36.4744 258.691 36.5443 259.001 36.5443 259.343C36.5443 259.684 36.4744 259.995 36.3347 260.275C36.1968 260.554 35.9834 260.777 35.6944 260.943C35.4055 261.108 35.0353 261.19 34.5839 261.19H33.1788V260.566H34.5613C34.8729 260.566 35.1231 260.513 35.312 260.405C35.5009 260.297 35.6378 260.152 35.7228 259.969C35.8096 259.784 35.8531 259.575 35.8531 259.343C35.8531 259.11 35.8096 258.903 35.7228 258.719C35.6378 258.536 35.4999 258.393 35.3092 258.289C35.1184 258.183 34.8653 258.13 34.5499 258.13H33.3148V263.309H32.6122ZM39.3631 263.399C38.9438 263.399 38.5821 263.307 38.2781 263.122C37.9759 262.935 37.7426 262.674 37.5783 262.34C37.4159 262.004 37.3347 261.613 37.3347 261.167C37.3347 260.721 37.4159 260.328 37.5783 259.989C37.7426 259.647 37.9712 259.38 38.2639 259.19C38.5585 258.997 38.9022 258.901 39.2951 258.901C39.5217 258.901 39.7455 258.938 39.9665 259.014C40.1874 259.09 40.3886 259.212 40.5699 259.382C40.7512 259.55 40.8957 259.773 41.0033 260.051C41.111 260.328 41.1648 260.67 41.1648 261.076V261.36H37.8106V260.782H40.4849C40.4849 260.536 40.4358 260.317 40.3376 260.125C40.2413 259.932 40.1034 259.78 39.924 259.668C39.7465 259.557 39.5368 259.501 39.2951 259.501C39.0288 259.501 38.7984 259.567 38.6038 259.7C38.4112 259.83 38.2629 260 38.1591 260.209C38.0552 260.419 38.0033 260.644 38.0033 260.884V261.269C38.0033 261.598 38.0599 261.876 38.1732 262.105C38.2884 262.331 38.448 262.504 38.652 262.623C38.856 262.74 39.093 262.799 39.3631 262.799C39.5387 262.799 39.6973 262.774 39.839 262.725C39.9825 262.674 40.1062 262.599 40.2101 262.498C40.314 262.397 40.3942 262.27 40.4509 262.119L41.0968 262.3C41.0288 262.519 40.9146 262.712 40.754 262.878C40.5935 263.042 40.3952 263.171 40.1591 263.263C39.923 263.354 39.6577 263.399 39.3631 263.399ZM42.8504 260.691V263.309H42.1818V258.957H42.8277V259.637H42.8844C42.9864 259.416 43.1412 259.239 43.349 259.105C43.5567 258.969 43.8249 258.901 44.1535 258.901C44.4481 258.901 44.7059 258.961 44.9269 259.082C45.1479 259.201 45.3197 259.382 45.4425 259.626C45.5653 259.868 45.6266 260.174 45.6266 260.544V263.309H44.9581V260.589C44.9581 260.247 44.8693 259.981 44.6918 259.79C44.5142 259.598 44.2706 259.501 43.9609 259.501C43.7475 259.501 43.5567 259.548 43.3886 259.64C43.2224 259.733 43.0912 259.868 42.9949 260.045C42.8985 260.223 42.8504 260.438 42.8504 260.691ZM48.4914 263.399C48.1288 263.399 47.8087 263.308 47.5311 263.125C47.2534 262.939 47.0362 262.679 46.8795 262.343C46.7227 262.005 46.6444 261.605 46.6444 261.144C46.6444 260.687 46.7227 260.291 46.8795 259.955C47.0362 259.618 47.2544 259.359 47.5339 259.175C47.8134 258.992 48.1364 258.901 48.5028 258.901C48.786 258.901 49.0098 258.948 49.1742 259.042C49.3404 259.135 49.4669 259.241 49.5538 259.36C49.6425 259.477 49.7115 259.573 49.7606 259.649H49.8172V257.507H50.4858V263.309H49.8399V262.64H49.7606C49.7115 262.719 49.6416 262.82 49.5509 262.94C49.4603 263.059 49.3309 263.166 49.1628 263.261C48.9947 263.353 48.7709 263.399 48.4914 263.399ZM48.5821 262.799C48.8503 262.799 49.0769 262.729 49.262 262.589C49.4471 262.447 49.5878 262.252 49.6841 262.003C49.7804 261.752 49.8286 261.462 49.8286 261.133C49.8286 260.808 49.7813 260.524 49.6869 260.28C49.5925 260.035 49.4527 259.844 49.2676 259.708C49.0826 259.57 48.854 259.501 48.5821 259.501C48.2988 259.501 48.0627 259.574 47.8738 259.719C47.6869 259.863 47.5462 260.058 47.4517 260.306C47.3592 260.551 47.3129 260.827 47.3129 261.133C47.3129 261.443 47.3601 261.724 47.4546 261.977C47.5509 262.228 47.6925 262.429 47.8795 262.578C48.0684 262.725 48.3026 262.799 48.5821 262.799ZM51.8031 263.309V258.957H52.4717V263.309H51.8031ZM52.143 258.232C52.0127 258.232 51.9004 258.188 51.8059 258.099C51.7134 258.01 51.6671 257.904 51.6671 257.779C51.6671 257.654 51.7134 257.547 51.8059 257.459C51.9004 257.37 52.0127 257.326 52.143 257.326C52.2734 257.326 52.3848 257.37 52.4773 257.459C52.5718 257.547 52.619 257.654 52.619 257.779C52.619 257.904 52.5718 258.01 52.4773 258.099C52.3848 258.188 52.2734 258.232 52.143 258.232ZM54.3648 260.691V263.309H53.6962V258.957H54.3421V259.637H54.3988C54.5007 259.416 54.6556 259.239 54.8634 259.105C55.0711 258.969 55.3393 258.901 55.6679 258.901C55.9625 258.901 56.2203 258.961 56.4413 259.082C56.6623 259.201 56.8341 259.382 56.9569 259.626C57.0796 259.868 57.141 260.174 57.141 260.544V263.309H56.4724V260.589C56.4724 260.247 56.3837 259.981 56.2062 259.79C56.0286 259.598 55.785 259.501 55.4753 259.501C55.2619 259.501 55.0711 259.548 54.903 259.64C54.7368 259.733 54.6056 259.868 54.5092 260.045C54.4129 260.223 54.3648 260.438 54.3648 260.691ZM60.1191 265.031C59.7962 265.031 59.5185 264.99 59.2862 264.906C59.0539 264.825 58.8604 264.718 58.7055 264.584C58.5525 264.451 58.4307 264.31 58.34 264.159L58.8726 263.785C58.9331 263.864 59.0096 263.955 59.1021 264.057C59.1946 264.16 59.3212 264.25 59.4817 264.326C59.6441 264.403 59.8566 264.442 60.1191 264.442C60.4704 264.442 60.7603 264.357 60.9888 264.187C61.2173 264.017 61.3316 263.751 61.3316 263.388V262.504H61.2749C61.2258 262.583 61.156 262.682 61.0653 262.799C60.9765 262.914 60.8481 263.017 60.68 263.108C60.5138 263.196 60.2891 263.241 60.0058 263.241C59.6545 263.241 59.3391 263.158 59.0596 262.991C58.782 262.825 58.562 262.583 58.3995 262.266C58.239 261.949 58.1587 261.564 58.1587 261.11C58.1587 260.665 58.2371 260.277 58.3939 259.946C58.5506 259.614 58.7688 259.357 59.0483 259.175C59.3278 258.992 59.6507 258.901 60.0171 258.901C60.3004 258.901 60.5252 258.948 60.6914 259.042C60.8595 259.135 60.9879 259.241 61.0766 259.36C61.1673 259.477 61.2372 259.573 61.2863 259.649H61.3543V258.957H62.0002V263.433C62.0002 263.807 61.9152 264.111 61.7452 264.346C61.5771 264.582 61.3505 264.754 61.0653 264.864C60.782 264.975 60.4666 265.031 60.1191 265.031ZM60.0965 262.64C60.3646 262.64 60.5913 262.579 60.7764 262.456C60.9614 262.333 61.1021 262.157 61.1985 261.926C61.2948 261.696 61.3429 261.42 61.3429 261.099C61.3429 260.786 61.2957 260.509 61.2013 260.269C61.1069 260.029 60.9671 259.841 60.782 259.705C60.5969 259.569 60.3684 259.501 60.0965 259.501C59.8132 259.501 59.5771 259.573 59.3882 259.717C59.2013 259.86 59.0606 260.053 58.9661 260.294C58.8736 260.536 58.8273 260.804 58.8273 261.099C58.8273 261.401 58.8745 261.668 58.969 261.901C59.0653 262.131 59.2069 262.312 59.3939 262.445C59.5828 262.575 59.8169 262.64 60.0965 262.64Z" fill="black"/>
<circle cx="23.5997" cy="260.959" r="2.99156" fill="#3F9142"/>
<path d="M91.5748 263.309H89.7843V257.507H91.6541C92.2169 257.507 92.6985 257.623 93.0989 257.855C93.4992 258.086 93.8061 258.417 94.0196 258.85C94.233 259.28 94.3397 259.796 94.3397 260.396C94.3397 261.001 94.232 261.521 94.0167 261.957C93.8014 262.392 93.4879 262.726 93.0762 262.96C92.6645 263.193 92.164 263.309 91.5748 263.309ZM90.4869 262.685H91.5294C92.0091 262.685 92.4067 262.593 92.7221 262.408C93.0375 262.223 93.2726 261.959 93.4275 261.617C93.5823 261.276 93.6598 260.869 93.6598 260.396C93.6598 259.928 93.5833 259.525 93.4303 259.187C93.2773 258.847 93.0488 258.586 92.7447 258.405C92.4407 258.222 92.062 258.13 91.6087 258.13H90.4869V262.685ZM97.1953 263.399C96.8024 263.399 96.4578 263.306 96.1612 263.119C95.8666 262.932 95.6362 262.67 95.47 262.334C95.3057 261.998 95.2235 261.605 95.2235 261.156C95.2235 260.702 95.3057 260.307 95.47 259.969C95.6362 259.631 95.8666 259.368 96.1612 259.181C96.4578 258.994 96.8024 258.901 97.1953 258.901C97.5881 258.901 97.9318 258.994 98.2264 259.181C98.5229 259.368 98.7534 259.631 98.9177 259.969C99.0839 260.307 99.167 260.702 99.167 261.156C99.167 261.605 99.0839 261.998 98.9177 262.334C98.7534 262.67 98.5229 262.932 98.2264 263.119C97.9318 263.306 97.5881 263.399 97.1953 263.399ZM97.1953 262.799C97.4937 262.799 97.7392 262.722 97.9318 262.569C98.1244 262.416 98.267 262.215 98.3596 261.966C98.4521 261.717 98.4984 261.447 98.4984 261.156C98.4984 260.865 98.4521 260.594 98.3596 260.343C98.267 260.091 98.1244 259.888 97.9318 259.734C97.7392 259.579 97.4937 259.501 97.1953 259.501C96.8969 259.501 96.6513 259.579 96.4587 259.734C96.2661 259.888 96.1235 260.091 96.0309 260.343C95.9384 260.594 95.8921 260.865 95.8921 261.156C95.8921 261.447 95.9384 261.717 96.0309 261.966C96.1235 262.215 96.2661 262.416 96.4587 262.569C96.6513 262.722 96.8969 262.799 97.1953 262.799ZM100.856 260.691V263.309H100.188V258.957H100.833V259.637H100.89C100.992 259.416 101.147 259.239 101.355 259.105C101.562 258.969 101.831 258.901 102.159 258.901C102.454 258.901 102.712 258.961 102.933 259.082C103.154 259.201 103.325 259.382 103.448 259.626C103.571 259.868 103.632 260.174 103.632 260.544V263.309H102.964V260.589C102.964 260.247 102.875 259.981 102.697 259.79C102.52 259.598 102.276 259.501 101.967 259.501C101.753 259.501 101.562 259.548 101.394 259.64C101.228 259.733 101.097 259.868 101.001 260.045C100.904 260.223 100.856 260.438 100.856 260.691ZM106.678 263.399C106.259 263.399 105.897 263.307 105.593 263.122C105.291 262.935 105.058 262.674 104.894 262.34C104.731 262.004 104.65 261.613 104.65 261.167C104.65 260.721 104.731 260.328 104.894 259.989C105.058 259.647 105.287 259.38 105.579 259.19C105.874 258.997 106.218 258.901 106.61 258.901C106.837 258.901 107.061 258.938 107.282 259.014C107.503 259.09 107.704 259.212 107.885 259.382C108.067 259.55 108.211 259.773 108.319 260.051C108.426 260.328 108.48 260.67 108.48 261.076V261.36H105.126V260.782H107.8C107.8 260.536 107.751 260.317 107.653 260.125C107.557 259.932 107.419 259.78 107.239 259.668C107.062 259.557 106.852 259.501 106.61 259.501C106.344 259.501 106.114 259.567 105.919 259.7C105.727 259.83 105.578 260 105.474 260.209C105.371 260.419 105.319 260.644 105.319 260.884V261.269C105.319 261.598 105.375 261.876 105.489 262.105C105.604 262.331 105.763 262.504 105.967 262.623C106.171 262.74 106.408 262.799 106.678 262.799C106.854 262.799 107.013 262.774 107.154 262.725C107.298 262.674 107.422 262.599 107.525 262.498C107.629 262.397 107.71 262.27 107.766 262.119L108.412 262.3C108.344 262.519 108.23 262.712 108.069 262.878C107.909 263.042 107.711 263.171 107.474 263.263C107.238 263.354 106.973 263.399 106.678 263.399Z" fill="black"/>
<circle cx="80.7718" cy="260.959" r="2.99156" fill="#142E15"/>
<path d="M117.668 239.354C132.657 239.354 147.309 234.909 159.772 226.581C172.235 218.254 181.949 206.418 187.685 192.57C193.421 178.722 194.922 163.484 191.998 148.782C189.073 134.081 181.855 120.578 171.257 109.979C160.658 99.3799 147.154 92.1619 132.453 89.2377C117.752 86.3135 102.514 87.8143 88.6656 93.5504C74.8175 99.2864 62.9813 109 54.6539 121.463C46.3264 133.926 41.8816 148.579 41.8816 163.568L73.3499 163.568C73.3499 154.802 75.9491 146.234 80.8188 138.946C85.6885 131.658 92.61 125.978 100.708 122.623C108.806 119.269 117.717 118.391 126.314 120.101C134.91 121.811 142.807 126.032 149.005 132.23C155.203 138.428 159.424 146.325 161.134 154.922C162.844 163.518 161.966 172.429 158.612 180.527C155.258 188.625 149.577 195.547 142.289 200.417C135.001 205.286 126.433 207.885 117.668 207.885L117.668 239.354Z" fill="#3F9142"/>
<path d="M41.8816 163.568C41.8816 173.52 43.8419 183.375 47.6505 192.57C51.4591 201.764 57.0415 210.119 64.0789 217.156C71.1163 224.194 79.4709 229.776 88.6657 233.585C97.8604 237.393 107.715 239.354 117.668 239.354L117.668 207.885C111.848 207.885 106.085 206.739 100.708 204.512C95.3312 202.285 90.4456 199.02 86.3303 194.905C82.215 190.79 78.9506 185.904 76.7234 180.527C74.4963 175.15 73.3499 169.387 73.3499 163.568L41.8816 163.568Z" fill="#142E15"/>
</svg>
